<?xml version="1.0" encoding="UTF-8"?>
<svg id="Layer_2" data-name="Layer 2" xmlns="http://www.w3.org/2000/svg" viewBox="0 0 337.44 141.5">
  <defs>
    <style>
      .cls-1 {
        fill: #984f3c;
        stroke-width: 0px;
      }
    </style>
  </defs>
  <g id="Layer_1-2" data-name="Layer 1">
    <g>
      <path class="cls-1" d="M264.47,32.65c8.71,0,15.87,2.92,21.5,8.76,5.73,5.84,8.6,13.91,8.6,24.21l.56,9.08h-20.55l-.56-6.53c0-5.31-1.43-9.34-4.3-12.1-2.87-2.87-6.69-4.3-11.47-4.3-5.31,0-9.56,1.65-12.74,4.94-3.19,3.29-4.78,8.23-4.78,14.81l.56,3.19h-20.55l-.56-39.82h20.55v8.92c4.99-7.43,12.9-11.15,23.73-11.15Z"/>
      <path class="cls-1" d="M172.54,32.65c8.71,0,15.87,2.92,21.5,8.76,5.73,5.84,8.6,13.91,8.6,24.21l.56,9.08h-20.55l-.56-6.53c0-5.31-1.43-9.34-4.3-12.1-2.87-2.87-6.69-4.3-11.47-4.3-5.31,0-9.56,1.65-12.74,4.94-3.19,3.29-4.78,8.23-4.78,14.81l.56,3.19h-20.55l-.56-39.82h20.55v8.92c4.99-7.43,12.9-11.15,23.73-11.15Z"/>
      <path class="cls-1" d="M99.11,25.32c-3.4,0-6.37-1.22-8.92-3.66-2.44-2.55-3.66-5.52-3.66-8.92s1.22-6.37,3.66-8.92c2.55-2.55,5.52-3.82,8.92-3.82s6.48,1.27,8.92,3.82c2.55,2.55,3.82,5.52,3.82,8.92s-1.27,6.37-3.82,8.92c-2.44,2.44-5.42,3.66-8.92,3.66ZM88.91,114.52V34.88h20.55v79.64h-20.55Z"/>
      <path class="cls-1" d="M324.7,25.32c-3.4,0-6.37-1.22-8.92-3.66-2.44-2.55-3.66-5.52-3.66-8.92s1.22-6.37,3.66-8.92c2.55-2.55,5.52-3.82,8.92-3.82s6.48,1.27,8.92,3.82c2.55,2.55,3.82,5.52,3.82,8.92s-1.27,6.37-3.82,8.92c-2.44,2.44-5.42,3.66-8.92,3.66ZM314.5,114.52V34.88h20.55v79.64h-20.55Z"/>
      <path class="cls-1" d="M42.05,116.75c-12,0-22.03-4.03-30.1-12.1C3.98,96.57,0,86.59,0,74.7s3.98-21.87,11.95-29.94c8.07-8.07,18.1-12.1,30.1-12.1,7.75,0,14.81,1.86,21.18,5.57,6.37,3.72,11.2,8.71,14.49,14.97l-17.68,10.35c-1.59-3.29-4.04-5.89-7.33-7.8-3.19-1.91-6.8-2.87-10.83-2.87-6.16,0-11.26,2.07-15.29,6.21-4.03,4.03-6.05,9.24-6.05,15.61s2.02,11.47,6.05,15.61c4.04,4.03,9.13,6.05,15.29,6.05,4.14,0,7.8-.9,10.99-2.71,3.29-1.91,5.73-4.51,7.33-7.8l17.84,10.19c-3.5,6.26-8.44,11.31-14.81,15.13-6.37,3.72-13.43,5.57-21.18,5.57Z"/>
      <path class="cls-1" d="M189.85,99.61c0,6.16,2.07,11.26,6.21,15.29,4.03,4.03,9.24,6.05,15.61,6.05s11.47-2.02,15.61-6.05c4.03-4.04,6.05-9.13,6.05-15.29l20.39-.16c0,12-4.03,22.03-12.1,30.1-8.07,7.96-18.05,11.95-29.94,11.95s-21.87-3.98-29.94-11.95c-8.07-8.07-12.1-18.1-12.1-30.1l20.23.16Z"/>
    </g>
  </g>
</svg>